<?xml version="1.0" encoding="UTF-8"?>
<svg id="Calque_1" data-name="Calque 1" xmlns="http://www.w3.org/2000/svg" viewBox="0 0 225 225.05">
  <defs>
    <style>
      .cls-1 {
        stroke: #1d1d1b;
        stroke-miterlimit: 10;
        stroke-width: 2px;
      }

      .cls-1, .cls-2 {
        fill: #e95c12;
      }

      .cls-3 {
        fill: #fff;
      }
    </style>
  </defs>
  <path class="cls-2" d="M60.03,131.44l10.24.81-.76,17.57c-14.55.5-25.35,1.43-35.5-10.39-9.67-11.25-11.31-26.44-5.34-40.66,4.82-11.49,17.03-21.59,31.45-23.06,11.09-1.13,21.85-.49,32.91-.24l-13.12,13.63c-2.78,2.89-5.83,5.43-10.22,5.03-8.42-.76-16.29,2.22-21.49,8.51-4.37,5.29-4.43,11.3-2.26,17.9,1.66,5.07,6.79,10.31,14.1,10.89Z"/>
  <path class="cls-2" d="M132.97,113.54c3.22,6.43,4,13.73,1.58,20.85-2.32,6.85-8.27,14.83-16.34,14.88l-40.1.26.08-18.4,32.42-.1c1.75,0,4.42-1.5,4.82-2.86s-.17-5.57-1.56-5.53c-7.92.27-16.59-1.41-21.54-7.06-5.42-6.19-7.71-13.73-5.79-22.87,1.72-8.18,9.9-17.12,19.35-17.09l48.22.15-12,11.72-6.23,6.17-27.43.23c-1.27.01-3.99,1.65-4.4,2.81-.48,1.36.52,5.06,1.8,5.76,8.27,4.54,20.4-2.33,27.11,11.07Z"/>
  <path class="cls-1" d="M224,112.52c0,61.59-49.92,111.52-111.5,111.52S1,174.12,1,112.52,50.92,1,112.5,1s111.5,49.93,111.5,111.52ZM162.1,78.15l.68,28.3,36.66-33.54c2.45,6.25,8.26-9.21,8.38-11.23l-13.12,1.74.1,3.91c.02.77-3.18,1.03-3.7.17C169.04,30.94,125.38,14.87,83.59,27.92c-36.55,11.41-61.57,46.57-61.55,84.4.02,38.3,24.59,73.11,61.44,84.89,22.57,7.21,44.76,5.93,66.62-3.43,36.83-15.76,58.34-55.64,51.86-95.88l-50.84,47.22c-2.88,2.67-5.89,4.58-9.63,7.11l-.18-55.39,10.95-9.98,9.85-8.7Z"/>
  <g>
    <path class="cls-3" d="M36.66,39.26l3.73-3.51c2.2-2.07,5.09-2.31,7.45.19s1.92,5.35-.28,7.42l-3.73,3.51-7.17-7.62ZM45.45,41.67c1.2-1.13,1.04-2.34-.02-3.47s-2.26-1.36-3.55-.15l-.88.83,3.48,3.7.97-.91Z"/>
    <path class="cls-3" d="M50.95,26.95l7.39-4.88,1.48,2.24-4.58,3.02.66,1,4.58-3.02,1.48,2.24-4.58,3.02.66,1,4.58-3.02,1.48,2.24-7.39,4.88-5.76-8.73Z"/>
    <path class="cls-3" d="M65.94,17.91l5.87-2.57c2.08-.91,3.89-.23,4.75,1.74.86,1.97.13,3.76-1.95,4.67l-2.72,1.19,1.39,3.18-3.15,1.38-4.19-9.58ZM72.92,19.55c.44-.19.7-.55.47-1.09-.25-.56-.68-.58-1.12-.39l-2.11.92.65,1.48,2.11-.92Z"/>
    <path class="cls-3" d="M84.72,17.04l-1.39-5.85,3.34-.79,1.36,5.74c.27,1.13.98,1.61,1.87,1.4.9-.21,1.34-.96,1.07-2.1l-1.36-5.74,3.34-.79,1.39,5.85c.74,3.12-.93,5.01-3.73,5.67-2.79.66-5.14-.27-5.88-3.39Z"/>
    <path class="cls-3" d="M100.89,7.82l3.42-.32.97,10.41-3.42.32-.97-10.41Z"/>
    <path class="cls-3" d="M111.63,14.86l5.63.22c.54.02.77-.18.78-.54.02-.42-.2-.64-.75-.66l-2.49-.1c-1.91-.07-3.28-1.28-3.2-3.43.09-2.21,1.54-3.21,3.46-3.14l6.06.24-.1,2.69-5.37-.21c-.4-.02-.75.12-.77.57-.02.43.32.61.72.63l2.55.1c2,.08,3.28,1.26,3.2,3.35-.08,2-1.46,3.29-3.46,3.21l-6.36-.25.1-2.69Z"/>
    <path class="cls-3" d="M136.27,17.8l2.42.72,1.4-4.73-2.42-.72.81-2.72,5.72,1.69-2.21,7.45,2.18.64-.76,2.58-7.89-2.34.76-2.58Z"/>
    <path class="cls-3" d="M151.04,22.81l2.46,1.17c1.47.7,2.03.39,2.71-1.03l-.15-.07c-.67.51-1.72.39-2.64-.05-1.67-.79-2.11-2.41-1.2-4.32,1.05-2.21,2.93-2.59,5.29-1.47,2.91,1.38,3.47,3.27,1.87,6.64-1.9,4.01-3.84,4.25-7.1,2.69l-2.39-1.13,1.15-2.43ZM156.89,20.76c.29-.61.02-1.12-.51-1.37-.51-.24-1.08-.13-1.37.48-.28.58,0,1.09.51,1.33.53.25,1.1.12,1.37-.44Z"/>
    <path class="cls-3" d="M164.26,29.15l.24-.35,2.7,1.84-.14.21c-.34.51-.22.96.26,1.28.68.46,1.11.34,1.38-.06.36-.53.09-.95-.65-1.46l-.7-.48,1.32-1.94.7.48c.74.51,1.29.37,1.59-.07.23-.33.19-.79-.43-1.22-.49-.34-.96-.22-1.18.12l-.25.37-2.7-1.84.09-.14c1.27-1.86,3.23-2.14,5.56-.55,2.43,1.66,2.75,3.32,1.75,4.78-.66.96-1.65,1.41-2.58,1l-.07.1c.75.78.78,1.89.07,2.92-1.14,1.67-2.82,1.91-5.39.16-2.36-1.61-2.83-3.31-1.56-5.17Z"/>
    <path class="cls-3" d="M176.17,38.5l1.84,1.73,3.37-3.6-1.84-1.73,1.94-2.07,4.35,4.07-5.31,5.67,1.66,1.55-1.84,1.96-6-5.62,1.84-1.96Z"/>
  </g>
  <g>
    <path class="cls-3" d="M61.75,193.95l4.94,2.11-1.2,9.99.4.17,6.41-7.76,4.88,2.09-9.11,10.52-7.64-3.27,1.32-13.85Z"/>
    <path class="cls-3" d="M84.53,202.41l5.1,1.19-3.01,12.9-5.1-1.19,3.01-12.9Z"/>
    <path class="cls-3" d="M98.08,205.24l10.25.63c3.45.21,5.56,1.97,5.39,4.69-.11,1.85-1.19,3.06-2.93,3.56l2.14,5.31-5.52-.34-1.71-4.83-3.29-.2-.29,4.71-4.84-.3.81-13.23ZM106.78,211.39c.95.06,1.63-.19,1.68-1.02.05-.81-.59-1.12-1.55-1.18l-4.2-.26-.13,2.19,4.2.26Z"/>
    <path class="cls-3" d="M121.99,205.61l5.21-.53,1.35,13.18-5.21.53-1.35-13.18Z"/>
    <path class="cls-3" d="M138.82,203.05l8.38-2.32,7.4,11.71-5.02,1.39-1.15-1.84-4.87,1.35-.04,2.17-5.02,1.39.33-13.84ZM143.59,209.95l3.05-.84-2.47-3.99-.5.14-.07,4.7Z"/>
    <path class="cls-3" d="M161.6,198.61l-4.06,2.07-1.55-3.04,12.78-6.51,1.55,3.04-4.06,2.07,4.47,8.78-4.66,2.38-4.47-8.78Z"/>
  </g>
</svg>